<?xml version="1.0" encoding="UTF-8"?>
<svg version="1.1" xmlns="http://www.w3.org/2000/svg" width="265" height="265">
<path d="M0 0 C0.66837891 0.18191895 1.33675781 0.36383789 2.02539062 0.55126953 C20.62856086 5.73994039 37.2661426 15.69230093 52 28 C52.95712891 28.77150391 52.95712891 28.77150391 53.93359375 29.55859375 C58.47859583 33.29379591 62.27721198 37.45325488 66 42 C66.77472656 42.93714844 67.54945313 43.87429687 68.34765625 44.83984375 C91.91603476 73.98947954 100.38966024 110.16093809 96.68359375 147.15869141 C95.86074705 152.8816701 94.5708063 158.43957801 93 164 C92.81808105 164.66837891 92.63616211 165.33675781 92.44873047 166.02539062 C87.26005961 184.62856086 77.30769907 201.2661426 65 216 C64.48566406 216.63808594 63.97132813 217.27617187 63.44140625 217.93359375 C59.70620409 222.47859583 55.54674512 226.27721198 51 230 C50.06285156 230.77472656 49.12570313 231.54945313 48.16015625 232.34765625 C19.01052046 255.91603476 -17.16093809 264.38966024 -54.15869141 260.68359375 C-59.8816701 259.86074705 -65.43957801 258.5708063 -71 257 C-71.66837891 256.81808105 -72.33675781 256.63616211 -73.02539062 256.44873047 C-91.62856086 251.26005961 -108.2661426 241.30769907 -123 229 C-123.63808594 228.48566406 -124.27617188 227.97132813 -124.93359375 227.44140625 C-129.47859583 223.70620409 -133.27721198 219.54674512 -137 215 C-137.77472656 214.06285156 -138.54945313 213.12570313 -139.34765625 212.16015625 C-162.91603476 183.01052046 -171.38966024 146.83906191 -167.68359375 109.84130859 C-166.86074705 104.1183299 -165.5708063 98.56042199 -164 93 C-163.72712158 91.99743164 -163.72712158 91.99743164 -163.44873047 90.97460938 C-158.26005961 72.37143914 -148.30769907 55.7338574 -136 41 C-135.48566406 40.36191406 -134.97132813 39.72382812 -134.44140625 39.06640625 C-130.70620409 34.52140417 -126.54674512 30.72278802 -122 27 C-121.06285156 26.22527344 -120.12570313 25.45054688 -119.16015625 24.65234375 C-86.29205657 -1.92252736 -40.80863448 -11.52834451 0 0 Z " fill="#FEFDFD" transform="translate(168,4)"/>
<path d="M0 0 C0.78310547 0.00974854 1.56621094 0.01949707 2.37304688 0.02954102 C13.492566 0.36480861 22.15159562 2.97316921 30.16015625 10.96875 C41.50556802 23.98199908 42.97880788 39.438661 42.77905273 55.99975586 C42.74991551 58.63263479 42.75853092 61.26351034 42.77148438 63.89648438 C42.75265428 80.31845342 40.14701082 96.59529169 28.375 109.0625 C19.79210155 116.7871086 9.76083479 118.92866945 -1.5703125 118.68359375 C-10.555936 117.97420242 -18.97189283 115.69802024 -25.6875 109.4375 C-27.6675 106.7975 -29.6475 104.1575 -31.6875 101.4375 C-32.0175 120.9075 -32.3475 140.3775 -32.6875 160.4375 C-38.9575 160.4375 -45.2275 160.4375 -51.6875 160.4375 C-52.0175 108.2975 -52.3475 56.1575 -52.6875 2.4375 C-46.4175 2.4375 -40.1475 2.4375 -33.6875 2.4375 C-33.0275 7.7175 -32.3675 12.9975 -31.6875 18.4375 C-30.6975 17.07625 -29.7075 15.715 -28.6875 14.3125 C-21.14087546 4.65525008 -12.28924226 -0.17246652 0 0 Z " fill="#ED2A4A" transform="translate(133.6875,52.5625)"/>
<path d="M0 0 C0.97001953 0.00451172 1.94003906 0.00902344 2.93945312 0.01367188 C5.3138676 0.0253685 7.68815021 0.04175914 10.0625 0.0625 C10.0625 0.7225 10.0625 1.3825 10.0625 2.0625 C6.73289245 4.28223836 5.64084841 4.31154077 1.7578125 4.3359375 C0.70585693 4.35342041 -0.34609863 4.37090332 -1.42993164 4.38891602 C-2.5461792 4.40494873 -3.66242676 4.42098145 -4.8125 4.4375 C-14.23991613 4.71428654 -22.23840939 5.18486614 -30.9375 9.0625 C-32.09894531 9.57425781 -33.26039062 10.08601562 -34.45703125 10.61328125 C-38.71655658 12.58491769 -42.83096984 14.79188003 -46.9375 17.0625 C-47.82324707 17.55008789 -48.70899414 18.03767578 -49.62158203 18.54003906 C-63.84848145 26.48800034 -75.58722533 35.40248935 -86.9375 47.0625 C-88.74938213 48.86145495 -90.56470672 50.65680325 -92.38305664 52.44921875 C-106.72569631 67.33474772 -112.85904099 86.63211828 -114.39453125 106.8359375 C-114.47493652 107.88740967 -114.5553418 108.93888184 -114.63818359 110.0222168 C-114.79279703 112.12958201 -114.93558755 114.23785743 -115.06494141 116.34692383 C-115.56244026 123.39368065 -116.75969922 129.70689845 -119.9375 136.0625 C-120.1324274 141.6666628 -119.69758304 147.01594809 -118.9375 152.5625 C-118.84210938 153.28953125 -118.74671875 154.0165625 -118.6484375 154.765625 C-118.41603833 156.53185867 -118.17743362 158.29727406 -117.9375 160.0625 C-118.9275 160.3925 -119.9175 160.7225 -120.9375 161.0625 C-120.9375 162.7125 -120.9375 164.3625 -120.9375 166.0625 C-119.2875 166.0625 -117.6375 166.0625 -115.9375 166.0625 C-115.56238281 167.0525 -115.18726562 168.0425 -114.80078125 169.0625 C-108.70646562 184.90129922 -99.77199801 195.28275227 -87.875 207.25 C-87.21459717 207.91515625 -86.55419434 208.5803125 -85.8737793 209.265625 C-81.96912552 213.15722297 -77.96088477 216.86543474 -73.76855469 220.44580078 C-71.847249 222.14218562 -70.04572393 223.92187702 -68.25 225.75 C-63.17251508 231.25285078 -63.17251508 231.25285078 -56.25 233.375 C-53.0624603 233.27549255 -53.0624603 233.27549255 -50.9375 232.0625 C-51.2675 233.3825 -51.5975 234.7025 -51.9375 236.0625 C-52.5975 236.0625 -53.2575 236.0625 -53.9375 236.0625 C-53.9375 236.7225 -53.9375 237.3825 -53.9375 238.0625 C-52.83535156 238.495625 -52.83535156 238.495625 -51.7109375 238.9375 C-50.05498161 239.60921169 -48.40916794 240.30841456 -46.7890625 241.0625 C-40.04091913 244.09324509 -33.4862396 244.97538544 -26.17822266 245.79296875 C-21.85601545 246.31287687 -17.55439506 246.97618434 -13.25 247.625 C-12.38842285 247.75205322 -11.5268457 247.87910645 -10.63916016 248.01000977 C-9.4197876 248.19261353 -9.4197876 248.19261353 -8.17578125 248.37890625 C-7.45430908 248.48662354 -6.73283691 248.59434082 -5.98950195 248.70532227 C-3.9375 249.0625 -3.9375 249.0625 -1.89819336 249.6105957 C1.32230355 250.35286189 4.54544636 249.93274597 7.8125 249.6875 C8.88504028 249.61088135 8.88504028 249.61088135 9.97924805 249.53271484 C12.00755592 249.38336036 14.03506329 249.2232482 16.0625 249.0625 C16.96097656 249.000625 17.85945312 248.93875 18.78515625 248.875 C21.72842074 248.61093141 23.62845737 248.42420219 25.9375 246.5 C26.30875 246.025625 26.68 245.55125 27.0625 245.0625 C27.7225 245.0625 28.3825 245.0625 29.0625 245.0625 C29.0625 243.7425 29.0625 242.4225 29.0625 241.0625 C29.7225 241.0625 30.3825 241.0625 31.0625 241.0625 C31.0625 240.4025 31.0625 239.7425 31.0625 239.0625 C31.7225 239.0625 32.3825 239.0625 33.0625 239.0625 C33.7225 239.7225 34.3825 240.3825 35.0625 241.0625 C37.14583333 240.89583333 37.14583333 240.89583333 39.0625 240.0625 C39.3925 239.4025 39.7225 238.7425 40.0625 238.0625 C40.7225 238.3925 41.3825 238.7225 42.0625 239.0625 C42.3925 238.0725 42.7225 237.0825 43.0625 236.0625 C44.7125 236.0625 46.3625 236.0625 48.0625 236.0625 C48.0625 237.0525 48.0625 238.0425 48.0625 239.0625 C50.0425 238.0725 52.0225 237.0825 54.0625 236.0625 C54.7225 236.7225 55.3825 237.3825 56.0625 238.0625 C60.56521125 237.80135857 63.85231306 235.56483678 67.5 233.125 C68.11415771 232.72095947 68.72831543 232.31691895 69.36108398 231.90063477 C80.9667719 224.20647706 92.04648731 215.86792205 103.04321289 207.33178711 C103.90938232 206.6641333 104.77555176 205.99647949 105.66796875 205.30859375 C106.44293701 204.70716553 107.21790527 204.1057373 108.01635742 203.48608398 C110.0625 202.0625 110.0625 202.0625 113.0625 201.0625 C113.0625 200.4025 113.0625 199.7425 113.0625 199.0625 C115.3725 198.7325 117.6825 198.4025 120.0625 198.0625 C115.99364632 206.31190138 111.06381702 213.11703365 105.0625 220.0625 C104.25619141 221.0525 104.25619141 221.0525 103.43359375 222.0625 C99.7257693 226.58867263 95.58457761 230.35990927 91.0625 234.0625 C90.12535156 234.83722656 89.18820313 235.61195313 88.22265625 236.41015625 C59.07302046 259.97853476 22.90156191 268.45216024 -14.09619141 264.74609375 C-19.8191701 263.92324705 -25.37707801 262.6333063 -30.9375 261.0625 C-31.60587891 260.88058105 -32.27425781 260.69866211 -32.96289062 260.51123047 C-51.56606086 255.32255961 -68.2036426 245.37019907 -82.9375 233.0625 C-83.57558594 232.54816406 -84.21367188 232.03382813 -84.87109375 231.50390625 C-89.41609583 227.76870409 -93.21471198 223.60924512 -96.9375 219.0625 C-97.71222656 218.12535156 -98.48695312 217.18820313 -99.28515625 216.22265625 C-122.85353476 187.07302046 -131.32716024 150.90156191 -127.62109375 113.90380859 C-126.79824705 108.1808299 -125.5083063 102.62292199 -123.9375 97.0625 C-123.66462158 96.05993164 -123.66462158 96.05993164 -123.38623047 95.03710938 C-118.19755961 76.43393914 -108.24519907 59.7963574 -95.9375 45.0625 C-95.42316406 44.42441406 -94.90882812 43.78632812 -94.37890625 43.12890625 C-90.64370409 38.58390417 -86.48424512 34.78528802 -81.9375 31.0625 C-81.00035156 30.28777344 -80.06320313 29.51304688 -79.09765625 28.71484375 C-56.75587273 10.65082352 -28.85881755 -0.25643515 0 0 Z " fill="#ED2949" transform="translate(127.9375,-0.0625)"/>
<path d="M0 0 C2.03543973 1.21489064 3.58225913 2.44395697 5.24609375 4.12890625 C5.81585938 4.69480469 6.385625 5.26070313 6.97265625 5.84375 C15.52912029 15.10987338 15.60131305 27.25137375 15.56176758 39.30395508 C15.55862626 41.29579134 15.58288161 43.28760932 15.60742188 45.27929688 C15.61329433 57.17101757 15.14419613 70.57054211 7.24609375 80.12890625 C6.52421875 81.05703125 5.80234375 81.98515625 5.05859375 82.94140625 C-0.75713888 87.46475385 -7.97147282 88.74659212 -15.2421875 88.47265625 C-22.37911064 87.49590783 -28.42760256 84.58407407 -33.2890625 79.2421875 C-36.06973797 75.23059968 -37.48514554 70.80708553 -38.75390625 66.12890625 C-39.01880859 65.18978394 -39.01880859 65.18978394 -39.2890625 64.23168945 C-43.46588479 47.9029248 -42.84974182 26.65435513 -35.3984375 11.34375 C-27.95199909 -0.93388974 -13.37112923 -4.22944939 0 0 Z " fill="#FEFCFD" transform="translate(141.75390625,68.87109375)"/>
<path d="M0 0 C17.43058376 5.81432115 32.14743546 14.29772644 46.2109375 26.16064453 C46.84515625 26.67240234 47.479375 27.18416016 48.1328125 27.71142578 C52.6839777 31.44700607 56.48507739 35.61014738 60.2109375 40.16064453 C60.98566406 41.09779297 61.76039063 42.03494141 62.55859375 43.00048828 C76.50397829 60.24829682 91.32192483 86.18542646 90.2109375 109.16064453 C88.7259375 108.66564453 88.7259375 108.66564453 87.2109375 108.16064453 C87.1490625 107.43876953 87.0871875 106.71689453 87.0234375 105.97314453 C85.95087669 102.26043404 83.97303851 100.86136552 81.2109375 98.16064453 C76.38173738 91.81435756 73.90477755 87.25024383 74.4609375 79.16064453 C74.50050785 75.33927909 74.4956921 74.51862174 72.0234375 71.41064453 C71.0953125 70.66814453 70.1671875 69.92564453 69.2109375 69.16064453 C63.64271612 63.45661287 59.97746299 56.10368666 59.9609375 47.97314453 C60.0434375 47.04501953 60.1259375 46.11689453 60.2109375 45.16064453 C59.2209375 45.82064453 58.2309375 46.48064453 57.2109375 47.16064453 C52.76939634 47.81301288 50.06966566 47.37716128 46.43359375 44.87939453 C45.03569432 43.82108633 43.64963014 42.74702977 42.2734375 41.66064453 C40.69724011 40.46886101 39.11762197 39.2815922 37.53515625 38.09814453 C36.26357666 37.14488281 36.26357666 37.14488281 34.96630859 36.17236328 C29.94799838 32.50845435 24.76514371 29.09145629 19.5859375 25.66064453 C18.57926025 24.99097656 17.57258301 24.32130859 16.53540039 23.63134766 C14.62952306 22.36807778 12.71978417 21.11060843 10.80566406 19.85986328 C9.1780188 18.79396085 7.55870434 17.71510697 5.95214844 16.61767578 C1.82641826 13.86850188 -1.2390431 12.56064607 -6.2890625 12.16064453 C-13.32116399 11.29590815 -17.74010551 9.11432162 -22.7890625 4.22314453 C-24.13064313 1.45613449 -23.9957078 -0.80855778 -23.7890625 -3.83935547 C-17.44128578 -7.01324383 -6.46677946 -2.06732533 0 0 Z " fill="#ED294A" transform="translate(173.7890625,5.83935546875)"/>
<path d="M0 0 C0.598125 0.20625 1.19625 0.4125 1.8125 0.625 C0.1625 2.275 -1.4875 3.925 -3.1875 5.625 C-3.8475 4.305 -4.5075 2.985 -5.1875 1.625 C-2.1875 -0.375 -2.1875 -0.375 0 0 Z " fill="#F26078" transform="translate(246.1875,198.375)"/>
<path d="M0 0 C3.44216672 2.6598561 3.99504674 5.90288286 5 10 C3.0625 8.9375 3.0625 8.9375 1 7 C0.25 3.3125 0.25 3.3125 0 0 Z " fill="#FAC5CE" transform="translate(10,173)"/>
<path d="M0 0 C0.66 0.33 1.32 0.66 2 1 C2 2.32 2 3.64 2 5 C1.34 5 0.68 5 0 5 C-0.33 5.66 -0.66 6.32 -1 7 C-1.66 5.02 -2.32 3.04 -3 1 C-2.01 1.33 -1.02 1.66 0 2 C0 1.34 0 0.68 0 0 Z " fill="#F36A80" transform="translate(9,172)"/>
<path d="M0 0 C0.33 0.99 0.66 1.98 1 3 C0.01 3.33 -0.98 3.66 -2 4 C-2.33 4.66 -2.66 5.32 -3 6 C-3 5.01 -3 4.02 -3 3 C-4.65 3 -6.3 3 -8 3 C-8 2.67 -8 2.34 -8 2 C-6.865625 1.855625 -5.73125 1.71125 -4.5625 1.5625 C-1.19222799 1.38828522 -1.19222799 1.38828522 0 0 Z " fill="#F2647C" transform="translate(76,232)"/>
</svg>
